<svg id="visual" viewBox="0 0 3440 1440" width="3440" height="1440" xmlns="http://www.w3.org/2000/svg" xmlns:xlink="http://www.w3.org/1999/xlink" version="1.1"><rect x="0" y="0" width="3440" height="1440" fill="#001122"></rect><path d="M0 825L57.3 818C114.7 811 229.3 797 344 787.3C458.7 777.7 573.3 772.3 688 766C802.7 759.7 917.3 752.3 1032 772.5C1146.7 792.7 1261.3 840.3 1376 841.2C1490.7 842 1605.3 796 1720 764.3C1834.7 732.7 1949.3 715.3 2064 744.7C2178.7 774 2293.3 850 2408 882.7C2522.7 915.3 2637.3 904.7 2752 915.2C2866.7 925.7 2981.3 957.3 3096 950.8C3210.7 944.3 3325.3 899.7 3382.7 877.3L3440 855L3440 1441L3382.7 1441C3325.3 1441 3210.7 1441 3096 1441C2981.3 1441 2866.7 1441 2752 1441C2637.3 1441 2522.7 1441 2408 1441C2293.3 1441 2178.7 1441 2064 1441C1949.3 1441 1834.7 1441 1720 1441C1605.3 1441 1490.7 1441 1376 1441C1261.3 1441 1146.7 1441 1032 1441C917.3 1441 802.7 1441 688 1441C573.3 1441 458.7 1441 344 1441C229.3 1441 114.7 1441 57.3 1441L0 1441Z" fill="#001122"></path><path d="M0 981L57.3 990.3C114.7 999.7 229.3 1018.3 344 1014.7C458.7 1011 573.3 985 688 963.2C802.7 941.3 917.3 923.7 1032 938.7C1146.7 953.7 1261.3 1001.3 1376 984.3C1490.7 967.3 1605.3 885.7 1720 886.3C1834.7 887 1949.3 970 2064 986.7C2178.7 1003.3 2293.3 953.7 2408 947.7C2522.7 941.7 2637.3 979.3 2752 964C2866.7 948.7 2981.3 880.3 3096 874.5C3210.7 868.7 3325.3 925.3 3382.7 953.7L3440 982L3440 1441L3382.7 1441C3325.3 1441 3210.7 1441 3096 1441C2981.3 1441 2866.7 1441 2752 1441C2637.3 1441 2522.7 1441 2408 1441C2293.3 1441 2178.7 1441 2064 1441C1949.3 1441 1834.7 1441 1720 1441C1605.3 1441 1490.7 1441 1376 1441C1261.3 1441 1146.7 1441 1032 1441C917.3 1441 802.7 1441 688 1441C573.3 1441 458.7 1441 344 1441C229.3 1441 114.7 1441 57.3 1441L0 1441Z" fill="#03293c"></path><path d="M0 1150L57.3 1116.7C114.7 1083.3 229.3 1016.7 344 985C458.7 953.3 573.3 956.7 688 968.3C802.7 980 917.3 1000 1032 997.2C1146.7 994.3 1261.3 968.7 1376 955.5C1490.7 942.3 1605.3 941.7 1720 936C1834.7 930.3 1949.3 919.7 2064 935.8C2178.7 952 2293.3 995 2408 1030.5C2522.7 1066 2637.3 1094 2752 1069.5C2866.7 1045 2981.3 968 3096 928.5C3210.7 889 3325.3 887 3382.7 886L3440 885L3440 1441L3382.7 1441C3325.3 1441 3210.7 1441 3096 1441C2981.3 1441 2866.7 1441 2752 1441C2637.3 1441 2522.7 1441 2408 1441C2293.3 1441 2178.7 1441 2064 1441C1949.3 1441 1834.7 1441 1720 1441C1605.3 1441 1490.7 1441 1376 1441C1261.3 1441 1146.7 1441 1032 1441C917.3 1441 802.7 1441 688 1441C573.3 1441 458.7 1441 344 1441C229.3 1441 114.7 1441 57.3 1441L0 1441Z" fill="#004355"></path><path d="M0 1044L57.3 1069.3C114.7 1094.7 229.3 1145.3 344 1138.8C458.7 1132.3 573.3 1068.7 688 1034.2C802.7 999.7 917.3 994.3 1032 997.2C1146.7 1000 1261.3 1011 1376 1018.8C1490.7 1026.7 1605.3 1031.3 1720 1054.8C1834.7 1078.3 1949.3 1120.7 2064 1142C2178.7 1163.3 2293.3 1163.7 2408 1135.5C2522.7 1107.3 2637.3 1050.7 2752 1055.2C2866.7 1059.7 2981.3 1125.3 3096 1137.8C3210.7 1150.3 3325.3 1109.7 3382.7 1089.3L3440 1069L3440 1441L3382.7 1441C3325.3 1441 3210.7 1441 3096 1441C2981.3 1441 2866.7 1441 2752 1441C2637.3 1441 2522.7 1441 2408 1441C2293.3 1441 2178.7 1441 2064 1441C1949.3 1441 1834.7 1441 1720 1441C1605.3 1441 1490.7 1441 1376 1441C1261.3 1441 1146.7 1441 1032 1441C917.3 1441 802.7 1441 688 1441C573.3 1441 458.7 1441 344 1441C229.3 1441 114.7 1441 57.3 1441L0 1441Z" fill="#005e6a"></path><path d="M0 1195L57.3 1207C114.7 1219 229.3 1243 344 1246.8C458.7 1250.7 573.3 1234.3 688 1210C802.7 1185.7 917.3 1153.3 1032 1154.8C1146.7 1156.3 1261.3 1191.7 1376 1209.5C1490.7 1227.3 1605.3 1227.7 1720 1238.7C1834.7 1249.7 1949.3 1271.3 2064 1255.3C2178.7 1239.3 2293.3 1185.7 2408 1184C2522.7 1182.3 2637.3 1232.7 2752 1236.7C2866.7 1240.7 2981.3 1198.3 3096 1196.3C3210.7 1194.3 3325.3 1232.7 3382.7 1251.8L3440 1271L3440 1441L3382.7 1441C3325.3 1441 3210.7 1441 3096 1441C2981.3 1441 2866.7 1441 2752 1441C2637.3 1441 2522.7 1441 2408 1441C2293.3 1441 2178.7 1441 2064 1441C1949.3 1441 1834.7 1441 1720 1441C1605.3 1441 1490.7 1441 1376 1441C1261.3 1441 1146.7 1441 1032 1441C917.3 1441 802.7 1441 688 1441C573.3 1441 458.7 1441 344 1441C229.3 1441 114.7 1441 57.3 1441L0 1441Z" fill="#007975"></path><path d="M0 1309L57.3 1313.3C114.7 1317.7 229.3 1326.3 344 1318C458.7 1309.7 573.3 1284.3 688 1286.5C802.7 1288.7 917.3 1318.3 1032 1333.7C1146.7 1349 1261.3 1350 1376 1349C1490.7 1348 1605.3 1345 1720 1330.8C1834.7 1316.7 1949.3 1291.3 2064 1290.8C2178.7 1290.3 2293.3 1314.7 2408 1316.7C2522.7 1318.7 2637.3 1298.3 2752 1302.8C2866.7 1307.3 2981.3 1336.7 3096 1340C3210.7 1343.3 3325.3 1320.7 3382.7 1309.3L3440 1298L3440 1441L3382.7 1441C3325.3 1441 3210.7 1441 3096 1441C2981.3 1441 2866.7 1441 2752 1441C2637.3 1441 2522.7 1441 2408 1441C2293.3 1441 2178.7 1441 2064 1441C1949.3 1441 1834.7 1441 1720 1441C1605.3 1441 1490.7 1441 1376 1441C1261.3 1441 1146.7 1441 1032 1441C917.3 1441 802.7 1441 688 1441C573.3 1441 458.7 1441 344 1441C229.3 1441 114.7 1441 57.3 1441L0 1441Z" fill="#009473"></path></svg>